<?xml version="1.0" encoding="UTF-8"?>
<svg id="_Слой_2" data-name="Слой 2" xmlns="http://www.w3.org/2000/svg" viewBox="0 0 61.54 64.89">
  <defs>
    <style>
      .cls-1 {
        fill: #fff;
        stroke-width: 0px;
      }
    </style>
  </defs>
  <g id="_Градиент" data-name="Градиент">
    <g>
      <g>
        <path class="cls-1" d="m42.32,62.42c-6.89-.06-13.77-.12-20.66-.18-.4,0-2.03.24-2.31-.1-.13-.16,0-.95,0-1.17.02-.69.14-1.32.49-1.93.78-1.31,2.24-1.97,3.72-2.01,3.35-.08,6.71,0,10.05,0,1.58,0,3.16-.04,4.73,0,1.41.04,2.69.68,3.46,1.9.14.23,1.11,3.43.52,3.5-1.55.18-1.57,2.63,0,2.45,3.54-.41,2.91-5.28,1.43-7.45-1.46-2.13-3.72-2.85-6.18-2.85h-13.25c-2.48,0-4.85.71-6.35,2.84s-2.08,7.03,1.46,7.26c3.46.22,6.99.06,10.46.09l12.42.11c1.58.01,1.58-2.44,0-2.45Z"/>
        <path class="cls-1" d="m40.67,55.14c0-.75-.16-1.74.13-2.46.25-.61.92-1.13,1.38-1.58,1.16-1.16,2.38-2.29,3.49-3.5,3.13-3.44,2.61-7.87,2.61-12.15v-4.74c0-1.58-2.45-1.58-2.45,0v9.53c0,2.26-.57,4.26-2.18,5.92-1.16,1.2-2.36,2.36-3.55,3.55-.65.65-1.27,1.28-1.6,2.16-.39,1.04-.28,2.18-.28,3.27,0,1.58,2.45,1.58,2.45,0h0Z"/>
        <path class="cls-1" d="m23.32,55.03c0-1.51.11-3.01-.84-4.3-.63-.87-1.51-1.59-2.26-2.35-2.22-2.22-4.45-4.18-4.51-7.6-.04-2.41,0-4.83,0-7.25,0-.96-.08-1.96.25-2.88.63-1.75,2.26-2.8,4.09-2.85,2.4-.06,4.81,0,7.21,0,1.79,0,4.89.13,4.59,2.68s-3.17,2.5-5.12,2.5c-1.23,0-2.53-.12-3.76,0-1.68.17-1.49,1.82-.8,2.94,1.31,2.13,3.66,2.39,5.92,2.44,1.63.04,3.42.42,4.52,1.72.65.77,1,1.89,1.09,2.75.04.4.04.8.02,1.2-.01.29-.07.59-.01.24-.25,1.54,2.11,2.21,2.36.65.33-2.05-.06-4.34-1.3-6.03-1.11-1.52-2.81-2.44-4.64-2.77-1.34-.24-2.77.01-4.07-.3-.64-.15-1.97-.77-1.97-1.61l-.36.87h0c-.29.12-.58.24-.87.36,3.67,0,9.11.95,11-3.15.97-2.11.32-4.59-1.62-5.9-1.7-1.15-3.77-1.03-5.73-1.03-2.1,0-4.2-.02-6.3,0-3.03.03-5.74,1.85-6.64,4.8-.53,1.72-.29,3.85-.29,5.64,0,1.97-.15,4.01.05,5.98.35,3.35,2.33,5.51,4.58,7.76.78.78,1.62,1.53,2.36,2.36.8.9.62,2.02.62,3.15,0,1.58,2.45,1.58,2.45,0h0Z"/>
        <path class="cls-1" d="m43.55,32.95c-1.13,0-2.18-.36-2.59-1.53-.21-.6-.12-1.32-.12-1.95,0-1.76-.04-3.53,0-5.29.02-1.11.76-2.08,1.88-2.28,1.08-.19,2.28.13,2.83,1.15.34.63.28,1.31.28,2v3.09c0,.83.02,1.66,0,2.5-.03,1.29-.99,2.28-2.28,2.31-1.58.04-1.58,2.49,0,2.45,2.07-.05,3.88-1.34,4.52-3.33.29-.91.21-1.93.21-2.88v-3.73c0-1,.06-2-.3-2.96-1.44-3.78-7.21-4.23-9.06-.53-.52,1.04-.54,2.1-.54,3.23v3.7c0,1.13-.11,2.34.3,3.42.8,2.09,2.71,3.08,4.86,3.08,1.58,0,1.58-2.45,0-2.45Z"/>
        <path class="cls-1" d="m33.39,27.41v-6.69c0-.98-.03-1.96,0-2.94.05-1.49,1.08-2.26,2.5-2.26s2.44.75,2.5,2.23c.03.8,0,1.6,0,2.4v8.42c0,.75.11,1.6-.05,2.34-.4,1.95-3.16,2.21-4.41.98-1.12-1.11-2.86.62-1.73,1.73,1.57,1.55,4.3,1.93,6.26.86,1.6-.88,2.37-2.52,2.38-4.29.02-2.9,0-5.8,0-8.69s.55-6.4-2.49-7.93c-1.85-.93-4.45-.67-5.98.75-1.21,1.13-1.43,2.61-1.43,4.17v8.92c0,1.58,2.45,1.58,2.45,0h0Z"/>
        <path class="cls-1" d="m25.94,25.59v-8.44c0-.55-.06-1.15.03-1.7.24-1.44,1.51-1.8,2.76-1.79s2.17.92,2.21,2.16c.05,1.72,0,3.45,0,5.16v5.76c0,1.58,2.45,1.58,2.45,0,0-3.64.09-7.3,0-10.94-.05-2.05-1.39-3.9-3.4-4.43-1.64-.44-3.57-.14-4.88.94-1.98,1.64-1.62,4.28-1.62,6.57v6.7c0,1.58,2.45,1.58,2.45,0h0Z"/>
        <path class="cls-1" d="m18.49,26.58v-4.93c0-.16,0-.31,0-.47,0-.02,0-.04,0-.07,0-.12,0-.25.02-.37-.03.24.06-.21.07-.26,0-.02.14-.37.04-.15.05-.11.1-.21.16-.31s.12-.2.19-.29c-.15.2.09-.09.1-.1.08-.08.16-.16.25-.24-.18.16.1-.07.12-.08.1-.06.2-.11.3-.17.13-.06.14-.07.03-.02.07-.03.15-.05.22-.07.1-.03.19-.05.29-.07.21-.05-.28,0,.09-.01.14,0,.27,0,.41,0,.15,0,.31,0,.46,0,.03,0,.06,0,.1,0,.05,0,.51.05.28.01.12.02.23.05.35.08.02,0,.37.14.15.04.21.09.42.21.6.35-.2-.15.09.09.1.1.08.08.16.16.24.25-.16-.18.07.1.08.12.08.13.16.27.22.41-.1-.23.03.13.04.15.03.11.06.23.08.35-.04-.23,0,.23.01.29,0,.16,0,.31,0,.47v3.7c0,.66.56,1.23,1.23,1.23s1.23-.56,1.23-1.23v-3.6c0-.68,0-1.36-.23-2.02-.41-1.19-1.29-2.21-2.45-2.72-1.94-.85-4.65-.53-6.06,1.14-.74.87-1.14,1.92-1.15,3.07,0,.47,0,.95,0,1.42v4.01c0,.66.56,1.23,1.23,1.23s1.23-.56,1.23-1.23h0Z"/>
      </g>
      <g>
        <path class="cls-1" d="m1.19,31.24c1.66.04,3.32.09,4.97.13l.7.02c.64.02,1.27-.53,1.26-1.19s-.51-1.24-1.19-1.26c-1.66-.04-3.32-.09-4.97-.13l-.7-.02C.62,28.77-.01,29.32,0,29.98s.51,1.24,1.19,1.26h0Z"/>
        <path class="cls-1" d="m9.53,10.19c1.14,1.2,2.28,2.4,3.43,3.61l.48.51c.44.47,1.27.52,1.73.04s.52-1.24.04-1.73c-1.14-1.2-2.28-2.4-3.43-3.61l-.48-.51c-.44-.47-1.27-.52-1.73-.04s-.52,1.24-.04,1.73h0Z"/>
        <path class="cls-1" d="m30.31,1.19l-.13,4.97-.02.7c-.02.64.53,1.27,1.19,1.26s1.24-.51,1.26-1.19l.13-4.97.02-.7c.02-.64-.53-1.27-1.19-1.26s-1.24.51-1.26,1.19h0Z"/>
        <path class="cls-1" d="m51.36,9.53l-3.61,3.43-.51.48c-.47.44-.52,1.27-.04,1.73s1.24.52,1.73.04c1.2-1.14,2.4-2.28,3.61-3.43l.51-.48c.47-.44.52-1.27.04-1.73s-1.24-.52-1.73-.04h0Z"/>
        <path class="cls-1" d="m60.35,30.31c-1.66-.04-3.32-.09-4.97-.13l-.7-.02c-.64-.02-1.27.53-1.26,1.19s.51,1.24,1.19,1.26c1.66.04,3.32.09,4.97.13l.7.02c.64.02,1.27-.53,1.26-1.19s-.51-1.24-1.19-1.26h0Z"/>
      </g>
    </g>
  </g>
</svg>