<?xml version="1.0" encoding="UTF-8"?>
<svg id="_Слой_2" data-name="Слой 2" xmlns="http://www.w3.org/2000/svg" viewBox="0 0 52.97 64.84">
  <defs>
    <style>
      .cls-1 {
        fill: #fff;
        stroke-width: 0px;
      }
    </style>
  </defs>
  <g id="_Градиент" data-name="Градиент">
    <g>
      <path class="cls-1" d="m26.47,4.5h.06c-.2-.03-.4-.05-.6-.08.08.01.14.04.21.07l-.54-.23c.41.2.79.49,1.19.71l1.76.98c1.09.61,2.18,1.24,3.3,1.79,4.39,2.13,9,3.8,13.75,4.93.64.15,1.27.31,1.91.45s1.31.19,1.89.41l-.54-.23c.25.12.22.24-.09-.11l-.21-.29c.04.06.08.13.1.2l-.23-.54c.04.12.06.22.08.34l-.08-.6c.08,1.07,0,2.16.02,3.23,0,.81.01,1.62.01,2.43v7.29c0,2.45-.03,4.88-.36,7.31l.08-.6c-.45,3.29-1.32,6.5-2.6,9.56l.23-.54c-.89,2.09-1.97,4.1-3.23,5.99-.32.48-.66.96-1,1.43-.07.1-.15.2-.22.3-.04.05-.08.1-.11.15-.17.23.3-.38.12-.16s-.36.46-.54.68c-.71.87-1.46,1.7-2.25,2.5s-1.62,1.57-2.49,2.3c-.23.19-.46.38-.69.57-.12.1-.25.2-.38.3-.19.15.2-.15.18-.14-.07.06-.15.11-.22.17-.49.37-.99.73-1.5,1.08-1.3.9-2.63,1.71-4.03,2.44-1.27.67-2.52,1.38-3.84,1.95l.54-.23c-.08.03-.17.07-.25.1h1.2l-.13-.05.54.23c-1.85-.79-3.65-1.76-5.38-2.8-.79-.47-1.57-.97-2.33-1.5-.38-.26-.76-.53-1.13-.81-.17-.13-.34-.25-.5-.38-.37-.28.42.33.06.04-.12-.09-.23-.18-.35-.27-1.46-1.17-2.84-2.43-4.12-3.8-.63-.67-1.24-1.37-1.82-2.08-.11-.14-.65-.84-.19-.24-.13-.18-.27-.35-.4-.53-.32-.44-.64-.88-.94-1.34-1.26-1.89-2.34-3.9-3.23-5.99l.23.54c-1.28-3.05-2.11-6.25-2.56-9.52l.08.6c-.49-3.66-.42-7.35-.42-11.03,0-1.96,0-3.92,0-5.89,0-1.11-.07-2.25,0-3.36l-.08.6c0-.07.02-.14.05-.21l-.23.54c.02-.06.05-.12.09-.18-.27.32-.33.4-.18.24-.5.46-.31.22-.08.12l-.54.23c.51-.2,1.07-.21,1.6-.33l1.81-.41c1.46-.33,2.89-.69,4.32-1.13,4.28-1.32,8.49-3.07,12.4-5.26l1.9-1.06c.69-.38,1.32-.88,2.04-1.2.48-.22.9-.86,1.03-1.35.15-.54.08-1.26-.23-1.73s-.77-.9-1.35-1.03c-.63-.14-1.15-.03-1.73.23-.62.28-1.16.71-1.76,1.04l-1.35.76c-1.01.57-2.01,1.13-3.05,1.64-1.2.59-2.42,1.15-3.66,1.67l.54-.23c-2.85,1.2-5.82,2.3-8.85,2.99l-2.57.59c-.31.07-.62.15-.93.21-.42.09-.86.1-1.27.24C1,9.71.03,10.89,0,12.43c0,.4,0,.8,0,1.2,0,.63,0,1.25,0,1.88,0,1.17,0,2.34,0,3.51,0,5.29-.17,10.59.77,15.82,1.31,7.32,4.78,14.15,9.89,19.55,2.38,2.51,5.11,4.72,8.02,6.59,1.45.93,2.96,1.75,4.49,2.54.38.2.77.39,1.15.57.77.37,1.6.85,2.48.73.64-.09,1.25-.43,1.83-.71.25-.12.51-.24.76-.37,1.37-.7,2.76-1.39,4.07-2.19,3.13-1.9,6.07-4.15,8.61-6.78,4.94-5.14,8.42-11.63,9.94-18.6.43-1.96.72-3.97.85-5.97.11-1.56.1-3.12.1-4.68s0-3.01,0-4.52c0-2.61-.01-5.22-.02-7.83,0-.92-.01-1.83-.56-2.62-.46-.67-1.1-1.16-1.89-1.39-.24-.07-.49-.1-.73-.15-.56-.12-1.12-.24-1.68-.37-2.15-.51-4.27-1.03-6.38-1.72-1.71-.56-3.4-1.2-5.06-1.9l.54.23c-1.63-.69-3.24-1.43-4.79-2.3-1.15-.64-2.31-1.29-3.46-1.93C28.14.58,27.44.01,26.47,0c-1.18-.02-2.31,1.05-2.25,2.25s.99,2.23,2.25,2.25Z"/>
      <path class="cls-1" d="m11.44,31.68c1.31.94,2.63,1.87,3.94,2.81,2.09,1.49,4.19,2.98,6.28,4.48.48.34.96.68,1.44,1.03.4.28.97.33,1.44.27.49-.07.94-.26,1.29-.62,1.89-1.9,3.79-3.81,5.68-5.71,3.01-3.03,6.02-6.06,9.04-9.09.68-.69,1.37-1.38,2.05-2.06.83-.84.9-2.36,0-3.18s-2.3-.89-3.18,0c-1.89,1.9-3.79,3.81-5.68,5.71-3.01,3.03-6.02,6.06-9.04,9.09-.68.69-1.37,1.38-2.05,2.06.91-.12,1.82-.23,2.73-.35-1.31-.94-2.63-1.87-3.94-2.81l-6.28-4.48c-.48-.34-.96-.68-1.44-1.03-.45-.32-1.22-.37-1.73-.23s-1.09.55-1.35,1.03c-.61,1.16-.22,2.35.81,3.08h0Z"/>
    </g>
  </g>
</svg>