<?xml version="1.0" encoding="UTF-8"?>
<svg id="_Слой_2" data-name="Слой 2" xmlns="http://www.w3.org/2000/svg" viewBox="0 0 64.89 64.89">
  <defs>
    <style>
      .cls-1 {
        fill: #fff;
        stroke-width: 0px;
      }
    </style>
  </defs>
  <g id="_Градиент" data-name="Градиент">
    <g>
      <path class="cls-1" d="m35.13,2.09c.74,2.09,1.43,4.21,2.23,6.28.51,1.32,2.48,1.71,3.7,2.21.53.22,1.06.44,1.59.66.67.28,1.38.68,2.09.86,1.1.28,2.81-.9,3.76-1.35,1.18-.56,2.35-1.12,3.53-1.68l-2-.26c2.02,2.02,4.03,4.03,6.05,6.05l-.26-2c-.95,2-1.95,3.99-2.86,6.02-.57,1.27.48,2.85.98,4.05s.92,2.68,1.59,3.84c.35.6,1.01.77,1.62.98l1.97.7,3.68,1.31-1.21-1.59v8.55l1.21-1.59c-2.09.74-4.21,1.43-6.28,2.23-1.32.51-1.71,2.48-2.21,3.7l-.66,1.59c-.28.67-.68,1.38-.86,2.09-.28,1.1.9,2.81,1.35,3.76.56,1.18,1.12,2.35,1.68,3.53l.26-2c-2.02,2.02-4.03,4.03-6.05,6.05l2-.26c-2-.95-3.99-1.95-6.02-2.86-1.27-.57-2.85.48-4.05.98-1.24.51-2.68.92-3.84,1.59-.6.35-.77,1.01-.98,1.62l-.7,1.97-1.31,3.68,1.59-1.21h-8.55l1.59,1.21c-.74-2.09-1.43-4.21-2.23-6.28-.51-1.32-2.48-1.71-3.7-2.21l-1.59-.66c-.67-.28-1.38-.68-2.09-.86-1.1-.28-2.81.9-3.76,1.35-1.18.56-2.35,1.12-3.53,1.68l2,.26c-2.02-2.02-4.03-4.03-6.05-6.05l.26,2c.95-2,1.95-3.99,2.86-6.02.57-1.27-.48-2.85-.98-4.05s-.92-2.68-1.59-3.84c-.35-.6-1.01-.77-1.62-.98-.66-.23-1.31-.47-1.97-.7l-3.68-1.31,1.21,1.59v-8.55l-1.21,1.59c2.09-.74,4.21-1.43,6.28-2.23,1.32-.51,1.71-2.48,2.21-3.7l.66-1.59c.28-.67.68-1.38.86-2.09.28-1.1-.9-2.81-1.35-3.76-.56-1.18-1.12-2.35-1.68-3.53l-.26,2c2.02-2.02,4.03-4.03,6.05-6.05l-2,.26c2,.95,3.99,1.95,6.02,2.86,1.27.57,2.85-.48,4.05-.98,1.24-.51,2.68-.92,3.84-1.59.6-.35.77-1.01.98-1.62l.7-1.97,1.31-3.68c-.53.4-1.06.81-1.59,1.21h8.55C38.84,3.3,38.85,0,36.72,0h-8.55c-.77,0-1.34.52-1.59,1.21-.74,2.09-1.49,4.19-2.23,6.28l1.15-1.15c-2.07.86-4.15,1.72-6.22,2.58l1.27.17c-2.01-.95-4.01-1.91-6.02-2.86-.67-.32-1.45-.29-2,.26-2.02,2.02-4.03,4.03-6.05,6.05-.55.55-.58,1.33-.26,2,.95,2.01,1.91,4.01,2.86,6.02l-.17-1.27c-.86,2.07-1.72,4.15-2.58,6.22l1.15-1.15c-2.09.74-4.19,1.49-6.28,2.23-.69.25-1.21.83-1.21,1.59v8.55c0,.77.52,1.34,1.21,1.59,2.09.74,4.19,1.49,6.28,2.23l-1.15-1.15c.86,2.07,1.72,4.15,2.58,6.22l.17-1.27c-.95,2.01-1.91,4.01-2.86,6.02-.32.67-.29,1.45.26,2,2.02,2.02,4.03,4.03,6.05,6.05.55.55,1.33.58,2,.26,2.01-.95,4.01-1.91,6.02-2.86l-1.27.17c2.07.86,4.15,1.72,6.22,2.58l-1.15-1.15c.74,2.09,1.49,4.19,2.23,6.28.25.69.83,1.21,1.59,1.21h8.55c.77,0,1.34-.52,1.59-1.21.74-2.09,1.49-4.19,2.23-6.28l-1.15,1.15c2.07-.86,4.15-1.72,6.22-2.58l-1.27-.17c2.01.95,4.01,1.91,6.02,2.86.67.32,1.45.29,2-.26,2.02-2.02,4.03-4.03,6.05-6.05.55-.55.58-1.33.26-2-.95-2.01-1.91-4.01-2.86-6.02l.17,1.27c.86-2.07,1.72-4.15,2.58-6.22l-1.15,1.15c2.09-.74,4.19-1.49,6.28-2.23.69-.25,1.21-.83,1.21-1.59v-8.55c0-.77-.52-1.34-1.21-1.59-2.09-.74-4.19-1.49-6.28-2.23l1.15,1.15c-.86-2.07-1.72-4.15-2.58-6.22l-.17,1.27c.95-2.01,1.91-4.01,2.86-6.02.32-.67.29-1.45-.26-2-2.02-2.02-4.03-4.03-6.05-6.05-.55-.55-1.33-.58-2-.26-2.01.95-4.01,1.91-6.02,2.86l1.27-.17c-2.07-.86-4.15-1.72-6.22-2.58l1.15,1.15c-.74-2.09-1.49-4.19-2.23-6.28-.3-.84-1.12-1.4-2.03-1.15-.81.22-1.45,1.18-1.15,2.03Z"/>
      <path class="cls-1" d="m20.44,33.89c2.65,2.38,5.29,4.76,7.94,7.13.64.58,1.7.68,2.33,0,4.01-4.33,8.03-8.65,12.04-12.98l1.7-1.84c1.44-1.55-.88-3.89-2.33-2.33-4.01,4.33-8.03,8.65-12.04,12.98l-1.7,1.84h2.33c-2.65-2.38-5.29-4.76-7.94-7.13-1.57-1.41-3.91.91-2.33,2.33h0Z"/>
    </g>
  </g>
</svg>