<?xml version="1.0" encoding="UTF-8"?>
<svg id="_Слой_2" data-name="Слой 2" xmlns="http://www.w3.org/2000/svg" viewBox="0 0 81.39 64.89">
  <defs>
    <style>
      .cls-1 {
        fill: #fff;
        stroke-width: 0px;
      }
    </style>
  </defs>
  <g id="_Градиент" data-name="Градиент">
    <g>
      <path class="cls-1" d="m10.4,12.81h46.54c1.61,0,1.61-2.5,0-2.5H10.4c-1.61,0-1.61,2.5,0,2.5h0Z"/>
      <path class="cls-1" d="m10.4,20.64h37.07c1.61,0,1.61-2.5,0-2.5H10.4c-1.61,0-1.61,2.5,0,2.5h0Z"/>
      <path class="cls-1" d="m10.4,28.48h21.88c1.61,0,1.61-2.5,0-2.5H10.4c-1.61,0-1.61,2.5,0,2.5h0Z"/>
      <path class="cls-1" d="m67.89,42.68c-.04,3.71-2.34,7.18-5.88,8.45-3.61,1.29-7.67.2-10.11-2.76-2.38-2.88-2.65-7.09-.75-10.29s5.77-4.98,9.45-4.24c4.22.85,7.25,4.55,7.29,8.84.02,1.61,2.52,1.61,2.5,0-.05-4.84-3.07-9.15-7.62-10.83-4.44-1.64-9.71-.2-12.71,3.45-3.06,3.72-3.56,9.07-1.08,13.24s7.41,6.32,12.17,5.41c5.35-1.02,9.18-5.9,9.24-11.28.02-1.61-2.49-1.61-2.5,0Z"/>
      <path class="cls-1" d="m10.4,36.81h21.88c1.61,0,1.61-2.5,0-2.5H10.4c-1.61,0-1.61,2.5,0,2.5h0Z"/>
      <path class="cls-1" d="m67.33,19.39v-7.6c0-2.77.49-6.19-1.13-8.61C64.88,1.21,62.72.05,60.36.01c-.27,0-.54,0-.81,0H9.23C8.08.01,6.9-.06,5.77.12,3.26.52,1.19,2.39.36,4.76.06,5.65,0,6.57,0,7.49v33.71C0,43.32-.06,45.37,1.25,47.21s3.44,2.96,5.74,2.99c.49,0,28.78,0,28.78,0,1.61,0,1.61-2.5,0-2.5h-13.62c-5.02,0-10.05.03-15.07,0-2.75-.02-4.57-2.15-4.57-4.81V9.98c0-1.25-.18-2.71.1-3.94.47-2.06,2.27-3.48,4.37-3.52.24,0,.47,0,.71,0h42.45c3.39,0,6.78-.04,10.17,0,1.51.02,2.95.71,3.79,2.01.69,1.06.74,2.18.74,3.39v11.48c0,1.61,2.5,1.61,2.5,0h0Z"/>
      <path class="cls-1" d="m45.98,48.61c-.34-1.6-1.47-2.79-2.98-3.36-.67-.25-1.35-.48-2.03-.72s-1.34-.4-1.76-.98c-.48-.66-.5-1.56-.09-2.24.37-.6.96-.81,1.59-1.03.76-.27,1.53-.53,2.28-.81,2.68-1.02,3.74-3.84,2.55-6.41-.36-.77-.73-1.54-1.1-2.31s-.5-1.49-.02-2.22c1.21-1.83,3.22-.42,4.65.26.94.45,1.85.84,2.92.76,1.47-.11,2.83-.92,3.59-2.2.41-.7.64-1.56.91-2.33.22-.63.39-1.44.81-1.98.56-.71,1.56-.9,2.32-.59.84.33,1.09,1.09,1.36,1.87.32.89.58,1.82.98,2.67.74,1.6,2.38,2.54,4.11,2.57,1.61.03,1.61-2.47,0-2.5-2.04-.04-2.35-2.54-2.9-4.05-.86-2.34-3.26-3.8-5.74-2.96-2.27.77-2.84,2.86-3.56,4.88-.27.77-.49,1.54-1.29,1.93s-1.51.12-2.25-.23c-2.06-.98-4.12-2.22-6.39-.98-1.3.71-2.16,2.05-2.32,3.51-.12,1.12.29,2.09.76,3.07.68,1.44,2.2,3.75.03,4.77-1.54.73-3.42.87-4.7,2.08-2.18,2.05-1.67,5.82.97,7.22,1.62.86,4.42.84,4.88,2.96.34,1.57,2.75.91,2.41-.67h0Z"/>
      <path class="cls-1" d="m43.57,49.28c.1.68-.26,1.27-.54,1.86-.3.62-.6,1.24-.89,1.87-.98,2.12-.48,4.49,1.49,5.85.98.68,2.23.9,3.39.67.69-.14,1.34-.5,1.98-.8,1.19-.56,2.65-1.63,3.92-.66.5.38.67.91.86,1.47.24.68.48,1.35.72,2.03.65,1.82,1.98,3.12,3.96,3.32,2.13.21,3.93-1.12,4.67-3.06.39-1.04.6-2.34,1.23-3.27.98-1.46,2.46-.72,3.68-.14,1.63.77,3.24,1.66,5.09.96,2.27-.86,3.6-3.44,2.71-5.76-.43-1.14-1.11-2.17-1.55-3.31-.31-.81-.1-1.76.59-2.32.43-.35,1.02-.48,1.54-.67,1.55-.55,3.16-.95,4.17-2.36,1.17-1.63,1.02-3.95-.25-5.48-1.02-1.23-2.68-1.6-4.13-2.11-.56-.2-1.13-.34-1.54-.8-.53-.59-.65-1.4-.37-2.13.48-1.22,1.28-2.33,1.64-3.59.68-2.33-.74-4.77-3-5.52-1.83-.61-3.44.33-5.04,1.09-.59.28-1.17.64-1.83.68-1.6.09-1.61,2.6,0,2.5s3.03-.99,4.44-1.66c1.25-.6,2.89-.15,3.1,1.42.08.61-.18,1.11-.43,1.64l-.91,1.9c-.86,1.8-.84,3.81.56,5.36,1.04,1.15,2.71,1.52,4.12,2.02,1.13.4,2.07,1.03,1.93,2.34s-1.3,1.64-2.4,2.03c-1.54.55-3.12.97-4.08,2.41-1.11,1.66-.77,3.43.03,5.11.49,1.02,1.55,2.48,1.07,3.66-.29.72-.97,1.25-1.74,1.3-.6.05-1.11-.25-1.63-.5-1.34-.64-2.76-1.54-4.29-1.47-2.07.1-3.52,1.5-4.18,3.38l-.73,2.05c-.17.47-.31.92-.68,1.28-.99.94-2.64.62-3.22-.66-.42-.95-.68-1.98-1.05-2.96-.81-2.14-2.92-3.45-5.21-2.99-1.3.26-2.52,1.11-3.72,1.63-1.36.6-3.1-.29-2.94-1.93.05-.52.34-.99.56-1.46.29-.6.58-1.2.86-1.81.47-1.02.61-1.96.45-3.07-.1-.67-.95-1.04-1.54-.87-.72.2-.97.87-.87,1.54h0Z"/>
    </g>
  </g>
</svg>